<svg id="icons" xmlns="http://www.w3.org/2000/svg" viewBox="0 0 96 96"><defs><style>.cls-1{fill:#f3aa9b;}.cls-2{fill:#49dbe5;}.cls-3{fill:#f7eade;}.cls-4{fill:#135ba3;}.cls-5{fill:#218dbf;}.cls-6{fill:none;stroke:#2b3444;stroke-linecap:round;stroke-linejoin:round;stroke-width:2px;}</style></defs><title>camera</title><g id="_Group_" data-name="&lt;Group&gt;"><circle class="cls-1" cx="77" cy="19" r="2"/><circle class="cls-2" cx="31" cy="16" r="3"/><circle class="cls-3" cx="70" cy="38" r="3"/><path class="cls-4" d="M83,61v8a4,4,0,0,1-4,4H17a4,4,0,0,1-4-4V61H35.51a16,16,0,0,0,24.98,0Z"/><path class="cls-5" d="M83,33V61H60.49a16,16,0,1,0-24.98,0H13V33a4,4,0,0,1,4-4H28c11,0,4-6,20-6s9,6,20,6H79A4,4,0,0,1,83,33ZM73,38a3,3,0,1,0-3,3A3,3,0,0,0,73,38Z"/><path class="cls-4" d="M21,25h4a2,2,0,0,1,2,2v2a0,0,0,0,1,0,0H19a0,0,0,0,1,0,0V27A2,2,0,0,1,21,25Z"/><path class="cls-3" d="M64,51A16,16,0,1,1,48,35,15.918,15.918,0,0,1,64,51Zm-7-2.26A4.77,4.77,0,0,0,52.2,44,4.819,4.819,0,0,0,48,46.45,4.819,4.819,0,0,0,43.8,44,4.77,4.77,0,0,0,39,48.74c0,6.23,6.3,8.89,9,11.26C50.7,57.63,57,54.97,57,48.74Z"/><path class="cls-1" d="M52.2,44A4.77,4.77,0,0,1,57,48.74c0,6.23-6.3,8.89-9,11.26-2.7-2.37-9-5.03-9-11.26A4.77,4.77,0,0,1,43.8,44,4.819,4.819,0,0,1,48,46.45,4.819,4.819,0,0,1,52.2,44Z"/><path class="cls-6" d="M35.51,61A16,16,0,1,1,48,67,15.918,15.918,0,0,1,35.51,61Z"/><path class="cls-6" d="M52.2,44A4.819,4.819,0,0,0,48,46.45,4.819,4.819,0,0,0,43.8,44,4.77,4.77,0,0,0,39,48.74c0,6.23,6.3,8.89,9,11.26,2.7-2.37,9-5.03,9-11.26A4.77,4.77,0,0,0,52.2,44Z"/><circle class="cls-6" cx="70" cy="38" r="3"/><path class="cls-6" d="M83,61V33a4,4,0,0,0-4-4H68c-11,0-4-6-20-6s-9,6-20,6H17a4,4,0,0,0-4,4V69a4,4,0,0,0,4,4H79a4,4,0,0,0,4-4Z"/><line class="cls-6" x1="83" y1="61" x2="60.49" y2="61"/><line class="cls-6" x1="35.51" y1="61" x2="13" y2="61"/><circle class="cls-6" cx="31" cy="16" r="3"/><circle class="cls-6" cx="37" cy="81" r="2"/><circle class="cls-6" cx="77" cy="19" r="2"/><line class="cls-6" x1="44" y1="29" x2="52" y2="29"/><path class="cls-6" d="M21,25h4a2,2,0,0,1,2,2v2a0,0,0,0,1,0,0H19a0,0,0,0,1,0,0V27A2,2,0,0,1,21,25Z"/></g></svg>