<svg xmlns="http://www.w3.org/2000/svg" viewBox="0 0 90 90"><defs><style>.cls-1{fill:#9cc925;}.cls-2{fill:#7f523b;}</style></defs><title>reed</title><g id="reed"><path class="cls-1" d="M33.89,47.65V83.79a1.25,1.25,0,0,0,2.5,0V47.65a1.25,1.25,0,0,0-2.5,0Z"/><path class="cls-1" d="M14.17,49.38v34.4a1.25,1.25,0,0,0,2.5,0V49.38a1.25,1.25,0,0,0-2.5,0Z"/><path class="cls-1" d="M73.34,51.37V83.79a1.25,1.25,0,0,0,2.5,0V51.37a1.25,1.25,0,0,0-2.5,0Z"/><path class="cls-1" d="M56.11,83.79v-41a1.25,1.25,0,0,0-2.5,0v41a1.25,1.25,0,0,0,2.5,0Z"/><path class="cls-1" d="M26.52,83.79V6.21a1.25,1.25,0,0,0-2.5,0V83.79a1.25,1.25,0,0,0,2.5,0Z"/><path class="cls-2" d="M29.83,30.35c0,3.38-2,6.12-4.55,6.12h0c-2.52,0-4.55-2.74-4.55-6.12v-16c0-3.38,2-6.12,4.55-6.12h0c2.51,0,4.55,2.74,4.55,6.12Z"/><path class="cls-1" d="M46.25,83.79V24.44a1.25,1.25,0,0,0-2.5,0V83.79a1.25,1.25,0,0,0,2.5,0Z"/><path class="cls-2" d="M49.55,48.58c0,3.38-2,6.12-4.55,6.12h0c-2.52,0-4.55-2.74-4.55-6.12v-16c0-3.38,2-6.12,4.55-6.12h0c2.51,0,4.55,2.74,4.55,6.12Z"/><path class="cls-1" d="M66,83.79V11.57a1.25,1.25,0,0,0-2.5,0V83.79a1.25,1.25,0,0,0,2.5,0Z"/><path class="cls-2" d="M69.28,35.71c0,3.38-2,6.12-4.55,6.12h0c-2.52,0-4.55-2.74-4.55-6.12v-16c0-3.38,2-6.12,4.55-6.12h0c2.51,0,4.55,2.74,4.55,6.12Z"/></g></svg>