<svg xmlns="http://www.w3.org/2000/svg" viewBox="0 0 90 90"><defs><style>.cls-1{fill:#503431;}.cls-1,.cls-2,.cls-3,.cls-4,.cls-5,.cls-7{fill-rule:evenodd;}.cls-2,.cls-6{fill:#9cc925;}.cls-3{fill:#66423f;}.cls-4{fill:#754c49;}.cls-5{fill:#7ba60d;}.cls-7{fill:#b0d451;}</style></defs><title>trees-2</title><g id="trees-2"><g id="tree"><polygon class="cls-1" points="57.19 49.49 56.16 48.81 46.63 63.18 47.65 63.86 57.19 49.49 57.19 49.49"/><path class="cls-2" d="M60.76,32.67A11.93,11.93,0,1,1,48.84,44.6,11.93,11.93,0,0,1,60.76,32.67Z"/><polygon class="cls-3" points="42.18 37.54 48.28 37.54 48.28 85 42.18 85 42.18 37.54 42.18 37.54"/><polygon class="cls-4" points="33.92 57.46 34.94 56.78 44.47 71.15 43.45 71.83 33.92 57.46 33.92 57.46"/><path class="cls-5" d="M60.76,32.67A11.93,11.93,0,1,1,48.84,44.6,11.93,11.93,0,0,1,60.76,32.67Z"/><path class="cls-6" d="M45.23,5A23.56,23.56,0,1,1,21.68,28.56,23.56,23.56,0,0,1,45.23,5Z"/><path class="cls-7" d="M29.24,37.75A11.93,11.93,0,1,1,17.31,49.68,11.93,11.93,0,0,1,29.24,37.75Z"/></g></g></svg>