<svg id="icons" xmlns="http://www.w3.org/2000/svg" viewBox="0 0 96 96"><defs><style>.cls-1{fill:#f06b6a;}.cls-2{fill:#49dbe5;}.cls-3{fill:#f7eade;}.cls-4{fill:#218dbf;}.cls-5{fill:#ee856f;}.cls-6{fill:#f3aa9b;}.cls-7{fill:#f3e1d0;}.cls-8{fill:none;stroke:#2b3444;stroke-linecap:round;stroke-linejoin:round;stroke-width:2px;}</style></defs><title>wedding-cake</title><g id="_Group_" data-name="&lt;Group&gt;"><circle class="cls-1" cx="24" cy="26" r="3"/><path class="cls-2" d="M80.52,29.05a3,3,0,1,1-3.47,2.43A2.989,2.989,0,0,1,80.52,29.05Z"/><circle class="cls-3" cx="15" cy="41" r="2"/><circle class="cls-4" cx="69" cy="14" r="2"/><path class="cls-5" d="M61,87H35c0-3.24,6.56-3.86,9.05-8.22a35.57,35.57,0,0,0,7.9,0C54.44,83.14,61,83.76,61,87Z"/><path class="cls-6" d="M29,69H67c0,4.81-6.45,8.83-15.05,9.78a35.57,35.57,0,0,1-7.9,0C35.45,77.83,29,73.81,29,69Z"/><path class="cls-3" d="M73,54V69H23V54c3.12,0,3.12,6,6.25,6s3.12-6,6.24-6,3.13,6,6.25,6,3.13-6,6.25-6,3.12,6,6.25,6,3.12-6,6.25-6,3.13,6,6.25,6S69.87,54,73,54Z"/><path class="cls-4" d="M73,51v3c-3.13,0-3.13,6-6.26,6s-3.12-6-6.25-6-3.13,6-6.25,6-3.13-6-6.25-6-3.12,6-6.25,6-3.12-6-6.25-6-3.12,6-6.24,6S26.12,54,23,54V51a2.006,2.006,0,0,1,2-2H71A2.006,2.006,0,0,1,73,51Z"/><path class="cls-7" d="M66,38V49H30V38c3,0,3,6,6,6s3-6,6-6,2.99,6,5.99,6,3-6,6-6,3,6,6.01,6S63,38,66,38Z"/><path class="cls-2" d="M66,35v3c-3,0-3,6-6,6s-3.01-6-6.01-6-3,6-6,6-3-6-5.99-6-3,6-6,6-3-6-6-6V35a2.006,2.006,0,0,1,2-2H64A2.006,2.006,0,0,1,66,35Z"/><path class="cls-3" d="M59,25v8H37V25c2.75,0,2.75,4,5.49,4s2.75-4,5.5-4,2.76,4,5.51,4S56.25,25,59,25Z"/><path class="cls-4" d="M59,23v2c-2.75,0-2.75,4-5.5,4s-2.75-4-5.51-4-2.75,4-5.5,4S39.75,25,37,25V23a2.006,2.006,0,0,1,2-2H57A2.006,2.006,0,0,1,59,23Z"/><path class="cls-6" d="M51,9a4,4,0,0,1,4,4c0,5-6,8-7,8s-7-3-7-8a3.985,3.985,0,0,1,7-2.62A3.967,3.967,0,0,1,51,9Z"/><line class="cls-8" x1="73" y1="69" x2="80" y2="69"/><line class="cls-8" x1="16" y1="69" x2="23" y2="69"/><path class="cls-8" d="M29,69c0,4.81,6.45,8.83,15.05,9.78a35.57,35.57,0,0,0,7.9,0C60.55,77.83,67,73.81,67,69"/><path class="cls-8" d="M51.95,78.78C54.44,83.14,61,83.76,61,87H35c0-3.24,6.56-3.86,9.05-8.22"/><path class="cls-8" d="M66,49h5a2.006,2.006,0,0,1,2,2V69H23V51a2.006,2.006,0,0,1,2-2h5"/><path class="cls-8" d="M37,33H32a2.006,2.006,0,0,0-2,2V49H66V35a2.006,2.006,0,0,0-2-2H59"/><path class="cls-8" d="M59,33H37V23a2.006,2.006,0,0,1,2-2H57a2.006,2.006,0,0,1,2,2V33Z"/><path class="cls-8" d="M51,9a3.967,3.967,0,0,0-3,1.38A3.985,3.985,0,0,0,41,13c0,5,6,8,7,8s7-3,7-8A4,4,0,0,0,51,9Z"/><path class="cls-8" d="M23,54c3.12,0,3.12,6,6.25,6s3.12-6,6.24-6,3.13,6,6.25,6,3.13-6,6.25-6,3.12,6,6.25,6,3.12-6,6.25-6,3.13,6,6.25,6,3.13-6,6.26-6"/><path class="cls-8" d="M30,38c3,0,3,6,6,6s3-6,6-6,2.99,6,5.99,6,3-6,6-6,3,6,6.01,6,3-6,6-6"/><path class="cls-8" d="M37,25c2.75,0,2.75,4,5.49,4s2.75-4,5.5-4,2.76,4,5.51,4,2.75-4,5.5-4"/><circle class="cls-8" cx="24" cy="26" r="3"/><path class="cls-8" d="M77.05,31.48a3,3,0,1,1,2.43,3.47A2.989,2.989,0,0,1,77.05,31.48Z"/><circle class="cls-8" cx="15" cy="41" r="2"/><circle class="cls-8" cx="69" cy="14" r="2"/></g></svg>