<svg id="icons" xmlns="http://www.w3.org/2000/svg" viewBox="0 0 96 96"><defs><style>.cls-1{fill:#f3aa9b;}.cls-2{fill:#49dbe5;}.cls-3{fill:#218dbf;}.cls-4{fill:#f7eade;}.cls-5{fill:none;stroke:#2b3444;stroke-linecap:round;stroke-linejoin:round;stroke-width:2px;}.cls-6{fill:#2b3444;}</style></defs><title>wedding-date</title><g id="_Group_" data-name="&lt;Group&gt;"><circle class="cls-1" cx="42" cy="13" r="2"/><circle class="cls-2" cx="11" cy="72" r="2"/><path class="cls-3" d="M33,21v3a3,3,0,0,1-6,0V18a3,3,0,0,1,6,0Z"/><path class="cls-3" d="M69,21v3a3,3,0,0,1-6,0V18a3,3,0,0,1,6,0Z"/><path class="cls-4" d="M79,62.61V77a4,4,0,0,1-4,4H21a4,4,0,0,1-4-4V35H79V47.48A6.193,6.193,0,0,0,76.6,47,6.388,6.388,0,0,0,71,50.37,6.388,6.388,0,0,0,65.4,47,6.458,6.458,0,0,0,59,53.52C59,62.08,67.4,65.74,71,69,72.96,67.23,76.33,65.34,79,62.61Z"/><path class="cls-1" d="M79,25V35H17V25a4,4,0,0,1,4-4h6v3a3,3,0,0,0,6,0V21H63v3a3,3,0,0,0,6,0V21h6A4,4,0,0,1,79,25Z"/><path class="cls-1" d="M79,47.48a6.5,6.5,0,0,1,4,6.04,12.61,12.61,0,0,1-4,9.09c-2.67,2.73-6.04,4.62-8,6.39-3.6-3.26-12-6.92-12-15.48A6.458,6.458,0,0,1,65.4,47,6.388,6.388,0,0,1,71,50.37,6.388,6.388,0,0,1,76.6,47,6.193,6.193,0,0,1,79,47.48Z"/><line class="cls-5" x1="63" y1="21" x2="33" y2="21"/><path class="cls-5" d="M79,62.61V77a4,4,0,0,1-4,4H21a4,4,0,0,1-4-4V25a4,4,0,0,1,4-4h6"/><path class="cls-6" d="M39.648,53.555a3.969,3.969,0,0,1-.949,2.713,4.777,4.777,0,0,1-2.672,1.459v.094A5.172,5.172,0,0,1,39.121,59.1a3.671,3.671,0,0,1,1.031,2.725,4.527,4.527,0,0,1-1.746,3.814,8.01,8.01,0,0,1-4.969,1.342,11.189,11.189,0,0,1-4.8-.926V63.609a10.974,10.974,0,0,0,2.309.832,10.023,10.023,0,0,0,2.344.293A4.943,4.943,0,0,0,36.262,64a2.671,2.671,0,0,0,.984-2.285,2.175,2.175,0,0,0-1.09-2.016,6.96,6.96,0,0,0-3.422-.645H31.246V56.813h1.512q4.1,0,4.1-2.836a2.091,2.091,0,0,0-.715-1.7,3.219,3.219,0,0,0-2.109-.6,6.387,6.387,0,0,0-1.875.275,8.877,8.877,0,0,0-2.133,1.072L28.68,51.105a8.982,8.982,0,0,1,5.473-1.734A6.511,6.511,0,0,1,38.2,50.484,3.654,3.654,0,0,1,39.648,53.555Z"/><path class="cls-6" d="M48.737,66.75H45.983V55.688q0-1.98.094-3.141-.27.281-.662.621t-2.631,2.156L41.4,53.578l5.039-3.961h2.3Z"/><path class="cls-5" d="M69,21h6a4,4,0,0,1,4,4V47.48"/><path class="cls-5" d="M33,21v3a3,3,0,0,1-6,0V18a3,3,0,0,1,6,0Z"/><path class="cls-5" d="M69,21v3a3,3,0,0,1-6,0V18a3,3,0,0,1,6,0Z"/><line class="cls-5" x1="17" y1="35" x2="79" y2="35"/><path class="cls-5" d="M79,47.48A6.193,6.193,0,0,0,76.6,47,6.388,6.388,0,0,0,71,50.37,6.388,6.388,0,0,0,65.4,47,6.458,6.458,0,0,0,59,53.52C59,62.08,67.4,65.74,71,69c1.96-1.77,5.33-3.66,8-6.39a12.61,12.61,0,0,0,4-9.09A6.5,6.5,0,0,0,79,47.48Z"/><circle class="cls-5" cx="42" cy="13" r="2"/><circle class="cls-5" cx="11" cy="72" r="2"/></g></svg>