<svg id="icons" xmlns="http://www.w3.org/2000/svg" viewBox="0 0 96 96"><defs><style>.cls-1{fill:#49dbe5;}.cls-2{fill:#218dbf;}.cls-3{fill:#f3aa9b;}.cls-4{fill:#ee856f;}.cls-5{fill:#f7eade;}.cls-6{fill:#f3e1d0;}.cls-7{fill:none;stroke:#2b3444;stroke-linecap:round;stroke-linejoin:round;stroke-width:2px;}</style></defs><title>wedding-rings</title><g id="_Group_" data-name="&lt;Group&gt;"><circle class="cls-1" cx="76" cy="80" r="2"/><circle class="cls-2" cx="32" cy="20" r="3"/><circle class="cls-3" cx="21" cy="35" r="2"/><polygon class="cls-4" points="56 20 61 31 49 20 56 20"/><polygon class="cls-4" points="73 20 61 31 66 20 73 20"/><polygon class="cls-3" points="61 13 56 20 49 20 55 13 61 13"/><path class="cls-5" d="M61,31a22,22,0,1,1-7.92,42.53,21.287,21.287,0,0,0,2.74-5.4A15.645,15.645,0,0,0,61,69,15.988,15.988,0,1,0,45.52,48.96a15.964,15.964,0,0,0,4.96,16.08,15.96,15.96,0,0,1-2.69,5.56,22,22,0,0,1-7.6-24.73,21.587,21.587,0,0,1,2.73-5.4A21.975,21.975,0,0,1,61,31Z"/><polygon class="cls-3" points="67 13 73 20 66 20 61 13 67 13"/><polygon class="cls-4" points="61 13 66 20 56 20 61 13"/><polygon class="cls-3" points="66 20 61 31 56 20 66 20"/><path class="cls-6" d="M57,61a21.851,21.851,0,0,1-1.18,7.13,21.287,21.287,0,0,1-2.74,5.4A21.991,21.991,0,1,1,42.92,40.47a21.587,21.587,0,0,0-2.73,5.4,16.04,16.04,0,1,0,5.33,3.09,15.96,15.96,0,0,1,2.69-5.56A21.985,21.985,0,0,1,57,61Z"/><path class="cls-7" d="M53.08,73.53A22,22,0,1,0,42.92,40.47a21.587,21.587,0,0,0-2.73,5.4,22,22,0,0,0,7.6,24.73"/><path class="cls-7" d="M55.82,68.13A15.645,15.645,0,0,0,61,69,15.988,15.988,0,1,0,45.52,48.96a15.964,15.964,0,0,0,4.96,16.08"/><path class="cls-7" d="M42.92,40.47A22,22,0,1,0,53.08,73.53a21.287,21.287,0,0,0,2.74-5.4A22.044,22.044,0,0,0,48.21,43.4"/><path class="cls-7" d="M40.19,45.87a16.04,16.04,0,1,0,5.33,3.09"/><polygon class="cls-7" points="73 20 67 13 61 13 55 13 49 20 61 31 73 20"/><polyline class="cls-7" points="49 20 56 20 66 20 73 20"/><polygon class="cls-7" points="66 20 61 31 56 20 61 13 66 20"/><circle class="cls-7" cx="76" cy="80" r="2"/><circle class="cls-7" cx="32" cy="20" r="3"/><circle class="cls-7" cx="21" cy="35" r="2"/></g></svg>